# Blender v3.0.1 OBJ File: ''
# www.blender.org
mtllib model.mtl
v -0.015000 -0.015000 0.015000
v -0.015000 0.015000 0.015000
v -0.015000 -0.015000 -0.015000
v -0.015000 0.015000 -0.015000
v 0.015000 -0.015000 0.015000
v 0.015000 0.015000 0.015000
v 0.015000 -0.015000 -0.015000
v 0.015000 0.015000 -0.015000
vt 0.982678 0.358196
vt 0.981946 0.661277
vt 0.750665 0.659610
vt 0.750957 0.358313
vt 0.746877 0.360977
vt 0.747686 0.662195
vt 0.513419 0.662048
vt 0.514747 0.356077
vt 0.512226 0.356282
vt 0.512539 0.661216
vt 0.283131 0.660588
vt 0.283383 0.354144
vt 0.280738 0.353684
vt 0.281370 0.660927
vt 0.026230 0.661462
vt 0.026724 0.353471
vt 0.512141 0.036323
vt 0.511632 0.354285
vt 0.282648 0.354967
vt 0.283157 0.035807
vt 0.512975 0.660103
vt 0.512399 0.969550
vt 0.282191 0.968812
vt 0.282076 0.660846
vn -1.0000 0.0000 0.0000
vn 0.0000 0.0000 -1.0000
vn 1.0000 0.0000 0.0000
vn 0.0000 0.0000 1.0000
vn 0.0000 -1.0000 0.0000
vn 0.0000 1.0000 0.0000
usemtl Material.001
s off
f 1/1/1 2/2/1 4/3/1 3/4/1
f 3/5/2 4/6/2 8/7/2 7/8/2
f 7/9/3 8/10/3 6/11/3 5/12/3
f 5/13/4 6/14/4 2/15/4 1/16/4
f 3/17/5 7/18/5 5/19/5 1/20/5
f 8/21/6 4/22/6 2/23/6 6/24/6
