# Blender v3.0.1 OBJ File: ''
# www.blender.org
mtllib model.mtl
v -0.015000 -0.015000 0.015000
v -0.015000 0.015000 0.015000
v -0.015000 -0.015000 -0.015000
v -0.015000 0.015000 -0.015000
v 0.015000 -0.015000 0.015000
v 0.015000 0.015000 0.015000
v 0.015000 -0.015000 -0.015000
v 0.015000 0.015000 -0.015000
vt 0.514255 0.357958
vt 0.747780 0.659732
vt 0.512897 0.660469
vt 0.752931 0.357530
vt 0.982023 0.659545
vt 0.749945 0.659840
vt 0.041129 0.358511
vt 0.280452 0.659146
vt 0.036639 0.659747
vt 0.283945 0.355691
vt 0.509986 0.661934
vt 0.282291 0.661778
vt 0.283392 0.966743
vt 0.507359 0.670096
vt 0.507342 0.967975
vt 0.510955 0.035460
vt 0.283390 0.353725
vt 0.284287 0.036657
vt 0.749138 0.358419
vt 0.980522 0.359629
vt 0.281353 0.360305
vt 0.512537 0.358242
vt 0.285204 0.670061
vt 0.510955 0.354923
vn -1.0000 0.0000 0.0000
vn 0.0000 0.0000 -1.0000
vn 1.0000 0.0000 0.0000
vn 0.0000 0.0000 1.0000
vn 0.0000 -1.0000 0.0000
vn 0.0000 1.0000 0.0000
usemtl Material.001
s off
f 2/1/1 3/2/1 1/3/1
f 4/4/2 7/5/2 3/6/2
f 8/7/3 5/8/3 7/9/3
f 6/10/4 1/11/4 5/12/4
f 7/13/5 1/14/5 3/15/5
f 4/16/6 6/17/6 8/18/6
f 2/1/1 4/19/1 3/2/1
f 4/4/2 8/20/2 7/5/2
f 8/7/3 6/21/3 5/8/3
f 6/10/4 2/22/4 1/11/4
f 7/13/5 5/23/5 1/14/5
f 4/16/6 2/24/6 6/17/6
